# xmcd
#
# Track frame offsets:
#	150
#	14325
#	27078
#	41332
#	56023
#	71286
#	84501
#	96794
#	113064
#	127271
#	141325
#	152464
#	168322
#	186429
#
# Disc length: 2690 seconds
#
# Revision: 1
# Processed by: cddbd v1.5.2PL0 Copyright (c) Steve Scherf et al.
# Submitted via: audiograbber 1.83.01
#
DISCID=b50a800e
DTITLE=Guilherme e Santiago - E daí - Ao vivo
DYEAR=2010
DGENRE=Sertanejo universitario
TTITLE0=Mete sua boca na minha
TTITLE1=Tá se achando
TTITLE2=Solteiro sim, sozinho nunca
TTITLE3=Noites
TTITLE4=Que dá vontade dá
TTITLE5=Safada, cachorra, bandida
TTITLE6=Me leva
TTITLE7=Tô pra lá de Bagdá
TTITLE8=Tudo tem um porquê
TTITLE9=O êxtase do amor
TTITLE10=E daí
TTITLE11=Deixa de orgulho
TTITLE12=O amor que sonhei
TTITLE13=Batidão de Goiás
EXTD=
EXTT0=
EXTT1=
EXTT2=
EXTT3=
EXTT4=
EXTT5=
EXTT6=
EXTT7=
EXTT8=
EXTT9=
EXTT10=
EXTT11=
EXTT12=
EXTT13=
PLAYORDER=
